HIERARCHY
ROOT root
{
	OFFSET 0.000000 0.000000 0.000000
	CHANNELS 6 Xposition Yposition Zposition Zrotation Yrotation Xrotation
	JOINT lhip
	{
		OFFSET 0.058581 -0.082280 -0.017664
		CHANNELS 3 Zrotation Yrotation Xrotation
		JOINT lknee
		{
			OFFSET 0.043451 -0.386469 0.008037
			CHANNELS 3 Zrotation Yrotation Xrotation
			JOINT lankle
			{
				OFFSET -0.014790 -0.426874 -0.037428
				CHANNELS 3 Zrotation Yrotation Xrotation
				JOINT ltoe
				{
					OFFSET 0.041054 -0.060286 0.122042
					CHANNELS 3 Zrotation Yrotation Xrotation
					End Site
					{
						OFFSET 0.000000 0.000000 0.000000
					}
				}
			}
		}
	}
	JOINT rhip
	{
		OFFSET -0.060310 -0.090513 -0.013543
		CHANNELS 3 Zrotation Yrotation Xrotation
		JOINT rknee
		{
			OFFSET -0.043257 -0.383688 -0.004843
			CHANNELS 3 Zrotation Yrotation Xrotation
			JOINT rankle
			{
				OFFSET 0.019056 -0.420046 -0.034562
				CHANNELS 3 Zrotation Yrotation Xrotation
				JOINT rtoe
				{
					OFFSET -0.034840 -0.062106 0.130323
					CHANNELS 3 Zrotation Yrotation Xrotation
					End Site
					{
						OFFSET 0.000000 0.000000 0.000000
					}
				}
			}
		}
	}
	JOINT lowerback
	{
		OFFSET 0.004439 0.124404 -0.038385
		CHANNELS 3 Zrotation Yrotation Xrotation
		JOINT upperback
		{
			OFFSET 0.004488 0.137956 0.026820
			CHANNELS 3 Zrotation Yrotation Xrotation
			JOINT chest
			{
				OFFSET -0.002265 0.056032 0.002855
				CHANNELS 3 Zrotation Yrotation Xrotation
				JOINT lowerneck
				{
					OFFSET -0.013390 0.211636 -0.033468
					CHANNELS 3 Zrotation Yrotation Xrotation
					JOINT upperneck
					{
						OFFSET 0.010113 0.088937 0.050410
						CHANNELS 3 Zrotation Yrotation Xrotation
						End Site
						{
							OFFSET 0.000000 0.000000 0.000000
						}
					}
				}
				JOINT lclavicle
				{
					OFFSET 0.071702 0.114000 -0.018898
					CHANNELS 3 Zrotation Yrotation Xrotation
					JOINT lshoulder
					{
						OFFSET 0.122921 0.045205 -0.019046
						CHANNELS 3 Zrotation Yrotation Xrotation
						JOINT lelbow
						{
							OFFSET 0.255332 -0.015649 -0.022946
							CHANNELS 3 Zrotation Yrotation Xrotation
							JOINT lwrist
							{
								OFFSET 0.265709 0.012698 -0.007375
								CHANNELS 3 Zrotation Yrotation Xrotation
								End Site
								{
									OFFSET 0.000000 0.000000 0.000000
								}
							}
						}
					}
				}
				JOINT rclavicle
				{
					OFFSET -0.082954 0.112472 -0.023707
					CHANNELS 3 Zrotation Yrotation Xrotation
					JOINT rshoulder
					{
						OFFSET -0.113228 0.046853 -0.008472
						CHANNELS 3 Zrotation Yrotation Xrotation
						JOINT relbow
						{
							OFFSET -0.260127 -0.014369 -0.031269
							CHANNELS 3 Zrotation Yrotation Xrotation
							JOINT rwrist
							{
								OFFSET -0.269108 0.006794 -0.006027
								CHANNELS 3 Zrotation Yrotation Xrotation
								End Site
								{
									OFFSET 0.000000 0.000000 0.000000
								}
							}
						}
					}
				}
			}
		}
	}
}
MOTION
Frames: 11
Frame Time: 0.033333
-0.370022 3.124022 0.988410 3.675367 -1.235231 86.575459 2.729102 7.234718 -3.788789 -0.576289 17.339437 21.348265 2.424071 17.091899 -21.360684 0.000000 -0.000000 0.000000 -3.582914 -7.272901 -3.041243 -2.389568 -9.121625 24.978798 4.396377 -12.333641 -19.705853 0.000000 -0.000000 0.000000 -0.116210 0.999322 12.949318 -0.495079 -2.242301 2.724831 -0.318760 -1.611288 4.097163 5.210642 -2.773509 -11.631097 4.292620 -2.533222 -2.647011 -26.418603 5.193265 -0.841589 -58.195457 -8.432112 7.319267 15.804964 -48.850480 3.753531 4.565292 -6.699377 -6.819132 24.293235 0.046630 -1.476069 54.054084 4.442280 11.889518 -10.677170 25.357413 2.562351 9.870597 5.332487 4.629999 
-0.371678 3.122373 0.990995 2.777445 -1.280025 87.169578 2.083705 5.577650 -3.880439 -2.740174 12.054673 20.816266 2.142477 14.936612 -23.423507 0.000000 -0.000000 0.000000 -3.569295 -6.979436 -2.642862 -1.756465 -8.641376 23.039826 4.519541 -12.389806 -18.795315 0.000000 -0.000000 0.000000 0.260920 1.353551 12.143805 -0.051592 -2.311301 2.840679 -0.073976 -1.808282 3.904855 5.811945 -2.303009 -11.000254 3.703064 -1.891923 -2.988201 -27.525311 5.642348 -0.457169 -59.972685 -6.532078 7.628855 14.838803 -42.038930 5.596146 4.401706 -5.211856 -6.191805 25.008827 -0.297980 -1.359809 54.860655 4.153658 11.789197 -11.627813 23.789044 1.599557 8.751319 5.260384 3.246939 
-0.372389 3.118348 0.993191 1.912725 -1.235023 87.671617 1.026815 4.077048 -3.006466 -4.061128 7.669680 18.654237 1.971585 13.195087 -24.259811 0.000000 -0.000000 0.000000 -3.428599 -6.522785 -2.087230 -1.364404 -8.127043 21.240938 4.714190 -12.531351 -18.007378 0.000000 -0.000000 0.000000 0.693920 1.695874 11.214399 0.256012 -2.289025 2.820405 0.161913 -1.913029 3.773762 6.161035 -2.090868 -10.146894 3.225804 -1.207326 -3.334203 -27.993353 6.444614 -0.097964 -62.561726 -4.379050 7.856088 14.440960 -35.221540 7.072425 4.986301 -3.252071 -5.816985 25.341616 -0.751609 -1.347008 55.811531 3.901380 11.733835 -12.207106 22.473744 0.867691 7.288974 5.102021 1.841282 
-0.372824 3.113400 0.993016 1.208070 -0.933961 88.085687 0.223946 2.934490 -1.793324 -4.628155 3.965088 16.041535 2.132922 12.103762 -23.390303 0.000000 -0.000000 0.000000 -3.184939 -5.971886 -1.801387 -0.941773 -7.808360 20.412414 4.727958 -12.581823 -17.679670 0.000000 -0.000000 0.000000 1.175928 1.815216 10.072674 0.579510 -2.094651 3.096755 0.451006 -1.970189 3.640801 6.171938 -1.928425 -9.474102 2.726236 -0.698840 -3.613028 -27.986411 7.183811 0.549746 -65.256802 -2.139259 7.921988 14.212312 -29.302226 7.828030 4.786839 -1.723372 -6.422629 25.473502 -1.014732 -1.150170 56.369084 3.887847 11.731592 -12.298597 21.860627 0.679105 6.699494 4.956211 0.653818 
-0.373622 3.108595 0.990276 0.696678 -0.380055 88.309868 0.046824 2.921467 -0.654282 -3.650303 3.211433 14.112898 3.415102 12.808265 -22.308042 0.000000 -0.000000 0.000000 -2.695463 -5.278729 -1.823250 -0.628874 -7.664635 20.762611 4.598692 -12.643137 -17.916166 0.000000 -0.000000 0.000000 1.565458 1.554889 9.209195 0.911019 -1.715709 3.412539 0.745393 -2.036655 3.584017 6.330003 -1.697541 -9.503513 2.043592 -0.245366 -3.459711 -28.079887 8.102210 1.393094 -66.944690 0.123808 7.546697 13.640767 -25.577934 8.707148 2.533667 -1.214602 -6.826126 25.724315 -1.043780 -0.884488 56.448242 4.239734 11.924215 -12.142421 21.901562 0.807495 7.081951 4.995140 0.536400 
-0.374643 3.103454 0.986745 0.348481 -0.034544 88.091503 0.275260 3.850519 0.791945 -3.219334 3.034605 12.664179 4.332343 13.097879 -22.070323 0.000000 -0.000000 0.000000 -2.342951 -4.737073 -1.827586 -0.637043 -7.443737 21.952240 4.710274 -12.821087 -18.585189 0.000000 -0.000000 0.000000 1.393510 1.077084 9.141526 1.178950 -1.438243 3.614065 0.958926 -2.019765 3.687895 6.927931 -1.185281 -10.092883 1.339525 0.028123 -3.335766 -28.465333 9.421871 2.051193 -67.189450 2.457345 6.865517 12.493050 -24.381728 10.366009 0.220687 -1.628198 -6.574290 26.251038 -0.945411 -0.850378 56.379606 4.991976 12.337214 -11.927283 22.272328 1.012541 6.961309 5.251609 1.228318 
-0.375360 3.098210 0.985032 0.148384 0.003894 87.659705 0.436510 4.353146 1.765857 -3.324037 2.336869 12.431643 4.383571 13.584001 -21.936532 0.000000 -0.000000 0.000000 -2.316111 -4.480537 -1.426900 -0.731558 -7.343043 22.780339 4.942499 -12.920571 -19.249359 0.000000 -0.000000 0.000000 1.041010 0.850326 9.577153 1.189714 -1.416083 3.619849 0.969826 -1.993918 3.883539 7.452724 -0.667247 -10.528856 1.001946 0.026781 -3.782127 -28.554791 10.714965 2.519532 -66.795356 4.736800 6.288567 11.101324 -24.678973 12.117224 0.124436 -1.995518 -5.966340 26.666291 -0.909143 -1.050712 56.776077 5.726091 12.757951 -11.623525 23.012708 1.206503 5.128930 5.557930 1.633511 
-0.375302 3.092901 0.984888 0.129938 0.017577 87.747119 0.446483 4.455073 2.158948 -3.356615 2.034801 12.253676 4.261607 13.890694 -22.141222 0.000000 -0.000000 0.000000 -2.448815 -4.447750 -0.923658 -0.576088 -7.435655 22.546827 5.252290 -12.652485 -19.833027 0.000000 -0.000000 0.000000 0.980750 0.921756 9.371752 1.049647 -1.412413 3.704683 0.794736 -1.966574 3.866497 7.615959 -0.540254 -10.483050 0.899058 -0.181066 -4.383593 -28.244560 11.680262 3.238206 -66.345791 6.586528 5.748932 10.183632 -25.685566 13.116260 0.892567 -2.179345 -5.241779 26.741077 -0.935934 -0.970256 57.330054 5.856440 12.988509 -11.176052 24.982165 1.394786 3.347620 5.899038 1.146433 
-0.374868 3.088127 0.985194 0.134702 0.107685 88.159130 0.441432 4.649581 2.520276 -3.266362 1.889766 11.372906 4.237233 13.973595 -22.180806 0.000000 -0.000000 0.000000 -2.516894 -4.510130 -0.494245 -0.310548 -7.436475 21.715154 5.545334 -12.355414 -20.096069 0.000000 -0.000000 0.000000 1.072549 1.009240 8.778914 0.933016 -1.292364 3.787571 0.666725 -1.869480 3.693518 7.550082 -0.624221 -10.321231 0.857190 -0.330378 -4.558164 -28.029218 12.259485 3.815828 -65.713158 7.772886 5.365261 9.467815 -26.800609 13.482365 1.281690 -2.367008 -4.458306 26.660808 -0.928341 -0.657745 57.375854 5.502048 13.187624 -10.465551 27.425463 1.845872 2.886618 6.217911 0.497946 
-0.373836 3.080328 0.985922 -0.249384 0.266289 88.861661 0.452717 4.907511 3.333862 -3.206180 1.710444 9.508082 4.110052 14.218303 -22.115275 0.000000 -0.000000 0.000000 -2.634080 -4.594516 0.038942 0.083928 -7.224683 20.394842 6.124250 -11.825669 -20.154452 0.000000 -0.000000 0.000000 1.234890 1.208247 7.772798 0.739956 -0.890336 3.795246 0.531108 -1.600277 3.455440 7.416519 -0.817024 -10.056052 0.765021 -0.558848 -4.507529 -27.652203 13.075468 4.300318 -64.484135 9.131411 5.046865 8.031640 -28.526513 14.127670 1.387944 -2.925602 -3.345628 26.267133 -0.996474 -0.247092 57.039057 4.833070 13.770395 -8.582898 31.235020 3.717994 2.957985 6.741500 -0.189749 
-0.372625 3.072227 0.986858 -0.854792 0.411797 89.673504 0.462515 5.023081 3.921856 -3.258922 1.675193 7.942041 3.874490 14.715146 -22.413950 0.000000 -0.000000 0.000000 -2.753856 -4.490560 0.115506 0.403598 -7.006967 19.635960 6.852474 -11.448401 -20.303801 0.000000 -0.000000 0.000000 1.296897 1.422171 6.877979 0.530976 -0.403815 3.558090 0.423571 -1.309362 3.277492 7.352715 -0.952237 -10.004460 0.593240 -0.843043 -4.287994 -26.921224 13.809989 4.578479 -63.128340 10.106127 4.979190 6.099847 -30.441486 15.269615 1.264269 -3.686588 -2.495434 25.474725 -1.119886 0.012818 56.704268 4.169989 14.712953 -5.765534 35.206387 6.959406 3.143377 7.279717 -0.465002 
